{"title":"Mohenjo Daro Hindi 2016 DesiSCR x264-Hindify.mp4","uid":15576440,"size":1473551680,"categoryP":"video","categoryS":"movies","magnet":"?xt=urn:btih:35dfd06abc38249ad6604c480a2b2a24ac1ec9d9&amp;dn=Mohenjo+Daro+Hindi+2016+DesiSCR+x264-Hindify.mp4&amp;tr=udp%3A%2F%2Ftracker.leechers-paradise.org%3A6969&amp;tr=udp%3A%2F%2Fzer0day.ch%3A1337&amp;tr=udp%3A%2F%2Fopen.demonii.com%3A1337&amp;tr=udp%3A%2F%2Ftracker.coppersurfer.tk%3A6969&amp;tr=udp%3A%2F%2Fexodus.desync.com%3A6969","seeders":4,"leechers":0,"uploader":null,"files":1,"time":1471341407,"description":"Mohenjo Daro Hindi 2016 DesiSCR x264-Hindify.mp4\r\n\r\nScreenShots:\r\n \nhttp://extraimago.com/images/2016/08/16/vlcsnap-2016-08-16-04h50m19s58360807.png \nhttp://extraimago.com/images/2016/08/16/vlcsnap-2016-08-16-04h50m22s712f67d8.png \nhttp://extraimago.com/images/2016/08/16/vlcsnap-2016-08-16-04h50m25s6230830f.png \nhttp://extraimago.com/images/2016/08/16/vlcsnap-2016-08-16-04h50m28s49146924.png \nhttp://extraimago.com/images/2016/08/16/vlcsnap-2016-08-16-04h50m31s478af667.png\r\n\r\nReview:\r\n\r\n\r\nINFO:\r\n\r\nFormat : MPEG-4\r\nFormat profile : Base Media\r\nCodec ID : isom (isom/iso2/avc1/mp41)\r\nFile size : 1.37 GiB\r\nDuration : 2 h 34 min\r\nOverall bit rate : 1 268 kb/s\r\nWriting application : Lavf57.20.100\r\n\r\nVideo\r\nID : 1\r\nFormat : AVC\r\nFormat/Info : Advanced Video Codec\r\nFormat profile :   \r\nFormat settings, CABAC : Yes\r\nFormat settings, ReFrames : 8 frames\r\nCodec ID : avc1\r\nCodec ID/Info : Advanced Video Coding\r\nDuration : 2 h 34 min\r\nBit rate : 1 131 kb/s\r\nWidth : 720 pixels\r\nHeight : 304 pixels\r\nDisplay aspect ratio : 2.35:1\r\nFrame rate mode : Constant\r\nFrame rate : 25.000 FPS\r\nColor space : YUV\r\nChroma subsampling : 4:2:0\r\nBit depth : 8 bits\r\nScan type : Progressive\r\nBits/(Pixel*Frame) : 0.207\r\nStream size : 1.23 GiB (89%)\r\nWriting library : x264 core 148 r2692 64f4e24\r\nEncoding settings : cabac=1 / ref=8 / deblock=1:-1:-1 / analyse=0x3:0x133 / me=umh / subme=9 / psy=1 / psy_rd=1.00:0.15 / mixed_ref=1 / me_range=16 / chroma_me=1 / trellis=2 / 8x8dct=1 / cqm=1 / deadzone=21,11 / fast_pskip=1 / chroma_qp_offset=-3 / threads=9 / lookahead_threads=1 / sliced_threads=0 / nr=0 / decimate=1 / interlaced=0 / bluray_compat=0 / constrained_intra=0 / bframes=3 / b_pyramid=2 / b_adapt=2 / b_bias=0 / direct=3 / weightb=1 / open_gop=0 / weightp=2 / keyint=250 / keyint_min=25 / scenecut=40 / intra_refresh=0 / rc_lookahead=60 / rc=2pass / mbtree=1 / bitrate=1131 / ratetol=1.0 / qcomp=0.60 / qpmin=4 / qpmax=69 / qpstep=4 / cplxblur=20.0 / qblur=0.5 / vbv_maxrate=17500 / vbv_bufsize=17500 / nal_hrd=none / filler=0 / ip_ratio=1.40 / aq=1:1.00\r\nLanguage : English\r\nColor range : Limited\r\nColor primaries : BT.601 NTSC\r\nTransfer characteristics : BT.470 System B, BT.470 System G\r\nMatrix coefficients : BT.601\r\nMenus : 3\r\n\r\nAudio\r\nID : 2\r\nFormat : AAC\r\nFormat/Info : Advanced Audio Codec\r\nFormat profile : LC\r\nCodec ID : 40\r\nDuration : 2 h 34 min\r\nBit rate mode : Constant\r\nBit rate : 128 kb/s\r\nChannel(s) : 2 channels\r\nChannel positions : Front: L R\r\nSampling rate : 48.0 kHz\r\nFrame rate : 46.875 FPS (1024 spf)\r\nCompression mode : Lossy\r\nStream size : 142 MiB (10%)\r\nDefault : Yes\r\nAlternate group : 1\r\nMenus : 3\r\n\r\nMenu #1\r\nID : 3\r\nCodec ID : text\r\nDuration : 2 h 34 min\r\nLanguage : English\r\nMenu For : 1,2\r\n00:00:00.000 : 00:00:00.054\r\n\r\nMenu #2\r\n00:00:00.054 : 00:00:00.054","torrent":{"xt":"urn:btih:35dfd06abc38249ad6604c480a2b2a24ac1ec9d9","amp;dn":"Mohenjo+Daro+Hindi+2016+DesiSCR+x264-Hindify.mp4","amp;tr":["udp%3A%2F%2Ftracker.leechers-paradise.org%3A6969","udp%3A%2F%2Fzer0day.ch%3A1337","udp%3A%2F%2Fopen.demonii.com%3A1337","udp%3A%2F%2Ftracker.coppersurfer.tk%3A6969","udp%3A%2F%2Fexodus.desync.com%3A6969"],"infoHash":"35dfd06abc38249ad6604c480a2b2a24ac1ec9d9","infoHashBuffer":{"type":"Buffer","data":[53,223,208,106,188,56,36,154,214,96,76,72,10,43,42,36,172,30,201,217]},"announce":[],"urlList":[]}}